<svg width="113" height="113" viewBox="0 0 113 113" fill="none" xmlns="http://www.w3.org/2000/svg">
<rect x="10.3181" y="10.3184" width="91.6364" height="91.6364" rx="9.5" fill="#102024" stroke="#102024" stroke-width="3"/>
<line x1="102.5" y1="86.5" x2="111.318" y2="86.5" stroke="#102024" stroke-width="3" stroke-linecap="round"/>
<line x1="102.5" y1="78.5" x2="111.318" y2="78.5" stroke="#102024" stroke-width="3" stroke-linecap="round"/>
<line x1="102.5" y1="70.5" x2="111.318" y2="70.5" stroke="#102024" stroke-width="3" stroke-linecap="round"/>
<line x1="102.5" y1="62.5" x2="111.318" y2="62.5" stroke="#102024" stroke-width="3" stroke-linecap="round"/>
<line x1="102.5" y1="54.5" x2="111.318" y2="54.5" stroke="#102024" stroke-width="3" stroke-linecap="round"/>
<line x1="1.5" y1="57.5" x2="10.3182" y2="57.5" stroke="#102024" stroke-width="3" stroke-linecap="round"/>
<line x1="1.5" y1="49.5" x2="10.3182" y2="49.5" stroke="#102024" stroke-width="3" stroke-linecap="round"/>
<line x1="1.5" y1="41.5" x2="10.3182" y2="41.5" stroke="#102024" stroke-width="3" stroke-linecap="round"/>
<line x1="1.5" y1="33.5" x2="10.3182" y2="33.5" stroke="#102024" stroke-width="3" stroke-linecap="round"/>
<line x1="1.5" y1="25.5" x2="10.3182" y2="25.5" stroke="#102024" stroke-width="3" stroke-linecap="round"/>
<line x1="86.5" y1="10.3184" x2="86.5" y2="1.50018" stroke="#102024" stroke-width="3" stroke-linecap="round"/>
<line x1="78.5" y1="10.3184" x2="78.5" y2="1.50018" stroke="#102024" stroke-width="3" stroke-linecap="round"/>
<line x1="70.5" y1="10.3184" x2="70.5" y2="1.50018" stroke="#102024" stroke-width="3" stroke-linecap="round"/>
<line x1="62.5" y1="10.3184" x2="62.5" y2="1.50018" stroke="#102024" stroke-width="3" stroke-linecap="round"/>
<line x1="54.5" y1="10.3184" x2="54.5" y2="1.50018" stroke="#102024" stroke-width="3" stroke-linecap="round"/>
<line x1="57.5" y1="111.318" x2="57.5" y2="102.5" stroke="#102024" stroke-width="3" stroke-linecap="round"/>
<line x1="49.5" y1="111.318" x2="49.5" y2="102.5" stroke="#102024" stroke-width="3" stroke-linecap="round"/>
<line x1="41.5" y1="111.318" x2="41.5" y2="102.5" stroke="#102024" stroke-width="3" stroke-linecap="round"/>
<line x1="33.5" y1="111.318" x2="33.5" y2="102.5" stroke="#102024" stroke-width="3" stroke-linecap="round"/>
<line x1="25.5" y1="111.318" x2="25.5" y2="102.5" stroke="#102024" stroke-width="3" stroke-linecap="round"/>
<mask id="path-22-outside-1_271_287" maskUnits="userSpaceOnUse" x="26.0001" y="39" width="64" height="38" fill="black">
<rect fill="white" x="26.0001" y="39" width="64" height="38"/>
<path d="M39.2334 75C35.472 75 32.7247 74.1333 30.9914 72.4C29.258 70.6667 28.3914 67.9193 28.3914 64.158V52.328C28.3914 48.532 29.2494 45.776 30.9654 44.06C32.6987 42.344 35.4374 41.486 39.1814 41.486H45.4734C48.6627 41.486 51.0374 42.1533 52.5974 43.488C54.1574 44.8053 55.0154 46.9287 55.1714 49.858C55.2234 50.326 55.128 50.6813 54.8854 50.924C54.66 51.1667 54.322 51.288 53.8714 51.288C53.0047 51.288 52.528 50.8287 52.4414 49.91C52.32 47.7607 51.7307 46.2787 50.6734 45.464C49.616 44.632 47.8827 44.216 45.4734 44.216H39.1814C37.188 44.216 35.602 44.476 34.4234 44.996C33.2447 45.4987 32.3954 46.348 31.8754 47.544C31.3727 48.7227 31.1214 50.3173 31.1214 52.328V64.158C31.1214 66.1687 31.3814 67.7633 31.9014 68.942C32.4214 70.1207 33.2707 70.97 34.4494 71.49C35.628 72.01 37.2227 72.27 39.2334 72.27H45.4734C47.8827 72.27 49.616 71.8627 50.6734 71.048C51.7307 70.216 52.32 68.7253 52.4414 66.576C52.528 65.6573 53.0047 65.198 53.8714 65.198C54.322 65.198 54.66 65.328 54.8854 65.588C55.128 65.8307 55.2234 66.1773 55.1714 66.628C55.0154 69.5573 54.1574 71.6893 52.5974 73.024C51.0374 74.3413 48.6627 75 45.4734 75H39.2334ZM67.6534 75C66.7347 75 66.2754 74.5407 66.2754 73.622V42.864C66.2754 41.9453 66.7347 41.486 67.6534 41.486H86.3994C86.8327 41.486 87.1621 41.6073 87.3874 41.85C87.6301 42.0753 87.7514 42.4133 87.7514 42.864C87.7514 43.7653 87.3007 44.216 86.3994 44.216H69.0054V56.67H80.8614C81.7801 56.67 82.2394 57.1207 82.2394 58.022C82.2394 58.9407 81.7801 59.4 80.8614 59.4H69.0054V73.622C69.0054 74.5407 68.5547 75 67.6534 75Z"/>
</mask>
<path d="M39.2334 75C35.472 75 32.7247 74.1333 30.9914 72.4C29.258 70.6667 28.3914 67.9193 28.3914 64.158V52.328C28.3914 48.532 29.2494 45.776 30.9654 44.06C32.6987 42.344 35.4374 41.486 39.1814 41.486H45.4734C48.6627 41.486 51.0374 42.1533 52.5974 43.488C54.1574 44.8053 55.0154 46.9287 55.1714 49.858C55.2234 50.326 55.128 50.6813 54.8854 50.924C54.66 51.1667 54.322 51.288 53.8714 51.288C53.0047 51.288 52.528 50.8287 52.4414 49.91C52.32 47.7607 51.7307 46.2787 50.6734 45.464C49.616 44.632 47.8827 44.216 45.4734 44.216H39.1814C37.188 44.216 35.602 44.476 34.4234 44.996C33.2447 45.4987 32.3954 46.348 31.8754 47.544C31.3727 48.7227 31.1214 50.3173 31.1214 52.328V64.158C31.1214 66.1687 31.3814 67.7633 31.9014 68.942C32.4214 70.1207 33.2707 70.97 34.4494 71.49C35.628 72.01 37.2227 72.27 39.2334 72.27H45.4734C47.8827 72.27 49.616 71.8627 50.6734 71.048C51.7307 70.216 52.32 68.7253 52.4414 66.576C52.528 65.6573 53.0047 65.198 53.8714 65.198C54.322 65.198 54.66 65.328 54.8854 65.588C55.128 65.8307 55.2234 66.1773 55.1714 66.628C55.0154 69.5573 54.1574 71.6893 52.5974 73.024C51.0374 74.3413 48.6627 75 45.4734 75H39.2334ZM67.6534 75C66.7347 75 66.2754 74.5407 66.2754 73.622V42.864C66.2754 41.9453 66.7347 41.486 67.6534 41.486H86.3994C86.8327 41.486 87.1621 41.6073 87.3874 41.85C87.6301 42.0753 87.7514 42.4133 87.7514 42.864C87.7514 43.7653 87.3007 44.216 86.3994 44.216H69.0054V56.67H80.8614C81.7801 56.67 82.2394 57.1207 82.2394 58.022C82.2394 58.9407 81.7801 59.4 80.8614 59.4H69.0054V73.622C69.0054 74.5407 68.5547 75 67.6534 75Z" fill="#fff"/>
<path d="M30.9914 72.4L32.4056 70.9858L32.4056 70.9858L30.9914 72.4ZM30.9654 44.06L29.5583 42.6387L29.5512 42.6458L30.9654 44.06ZM52.5974 43.488L51.2972 45.0077L51.307 45.0161L52.5974 43.488ZM55.1714 49.858L53.1742 49.9644L53.1773 50.0217L53.1836 50.0789L55.1714 49.858ZM54.8854 50.924L53.4712 49.5098L53.445 49.536L53.4198 49.5631L54.8854 50.924ZM52.4414 49.91L50.4446 50.0227L50.4467 50.0603L50.4502 50.0978L52.4414 49.91ZM50.6734 45.464L49.4366 47.0357L49.4446 47.0421L49.4527 47.0483L50.6734 45.464ZM34.4234 44.996L35.2079 46.8357L35.2193 46.8308L35.2307 46.8258L34.4234 44.996ZM31.8754 47.544L30.0412 46.7465L30.0357 46.7594L31.8754 47.544ZM31.9014 68.942L30.0715 69.7493L30.0715 69.7493L31.9014 68.942ZM34.4494 71.49L33.6421 73.3198L33.6421 73.3198L34.4494 71.49ZM50.6734 71.048L51.8941 72.6323L51.9021 72.6261L51.9102 72.6197L50.6734 71.048ZM52.4414 66.576L50.4502 66.3882L50.4467 66.4257L50.4446 66.4633L52.4414 66.576ZM54.8854 65.588L53.374 66.8979L53.4207 66.9518L53.4712 67.0022L54.8854 65.588ZM55.1714 66.628L53.1846 66.3987L53.1775 66.46L53.1742 66.5216L55.1714 66.628ZM52.5974 73.024L53.8878 74.5521L53.8976 74.5437L52.5974 73.024ZM39.2334 75V73C35.7249 73 33.6049 72.1851 32.4056 70.9858L30.9914 72.4L29.5772 73.8142C31.8445 76.0815 35.2192 77 39.2334 77V75ZM30.9914 72.4L32.4056 70.9858C31.2062 69.7864 30.3914 67.6665 30.3914 64.158H28.3914H26.3914C26.3914 68.1722 27.3099 71.5469 29.5772 73.8142L30.9914 72.4ZM28.3914 64.158H30.3914V52.328H28.3914H26.3914V64.158H28.3914ZM28.3914 52.328H30.3914C30.3914 48.7717 31.2036 46.6502 32.3796 45.4742L30.9654 44.06L29.5512 42.6458C27.2952 44.9018 26.3914 48.2923 26.3914 52.328H28.3914ZM30.9654 44.06L32.3725 45.4813C33.5728 44.293 35.6887 43.486 39.1814 43.486V41.486V39.486C35.186 39.486 31.8246 40.395 29.5583 42.6387L30.9654 44.06ZM39.1814 41.486V43.486H45.4734V41.486V39.486H39.1814V41.486ZM45.4734 41.486V43.486C48.4374 43.486 50.2532 44.1145 51.2972 45.0077L52.5974 43.488L53.8976 41.9683C51.8215 40.1921 48.8881 39.486 45.4734 39.486V41.486ZM52.5974 43.488L51.307 45.0161C52.2892 45.8454 53.0345 47.3419 53.1742 49.9644L55.1714 49.858L57.1685 49.7516C56.9962 46.5154 56.0256 43.7652 53.8877 41.9599L52.5974 43.488ZM55.1714 49.858L53.1836 50.0789C53.1894 50.1314 53.175 50.0772 53.2072 49.9572C53.2437 49.8213 53.3266 49.6544 53.4712 49.5098L54.8854 50.924L56.2996 52.3382C57.1168 51.521 57.2517 50.4706 57.1591 49.6371L55.1714 49.858ZM54.8854 50.924L53.4198 49.5631C53.5429 49.4305 53.6809 49.3527 53.7871 49.3146C53.8822 49.2805 53.9226 49.288 53.8714 49.288V51.288V53.288C54.6699 53.288 55.6256 53.0661 56.351 52.2849L54.8854 50.924ZM53.8714 51.288V49.288C53.8279 49.288 53.861 49.2819 53.9416 49.3094C54.0303 49.3398 54.145 49.4006 54.2517 49.5033C54.4721 49.7158 54.4485 49.8919 54.4325 49.7222L52.4414 49.91L50.4502 50.0978C50.5209 50.8468 50.7789 51.7119 51.4761 52.3837C52.1914 53.0729 53.0859 53.288 53.8714 53.288V51.288ZM52.4414 49.91L54.4382 49.7973C54.3038 47.4168 53.6303 45.2175 51.8941 43.8797L50.6734 45.464L49.4527 47.0483C49.8311 47.3398 50.3363 48.1046 50.4446 50.0227L52.4414 49.91ZM50.6734 45.464L51.9102 43.8923C50.3143 42.6365 48.0168 42.216 45.4734 42.216V44.216V46.216C47.7486 46.216 48.9178 46.6275 49.4366 47.0357L50.6734 45.464ZM45.4734 44.216V42.216H39.1814V44.216V46.216H45.4734V44.216ZM39.1814 44.216V42.216C37.0466 42.216 35.1498 42.4895 33.6161 43.1662L34.4234 44.996L35.2307 46.8258C36.0543 46.4625 37.3295 46.216 39.1814 46.216V44.216ZM34.4234 44.996L33.6388 43.1563C31.9807 43.8634 30.761 45.091 30.0412 46.7465L31.8754 47.544L33.7095 48.3415C34.0297 47.605 34.5087 47.1339 35.2079 46.8357L34.4234 44.996ZM31.8754 47.544L30.0357 46.7594C29.3843 48.2868 29.1214 50.1844 29.1214 52.328H31.1214H33.1214C33.1214 50.4503 33.3611 49.1585 33.7151 48.3286L31.8754 47.544ZM31.1214 52.328H29.1214V64.158H31.1214H33.1214V52.328H31.1214ZM31.1214 64.158H29.1214C29.1214 66.3073 29.3942 68.2139 30.0715 69.7493L31.9014 68.942L33.7312 68.1347C33.3686 67.3128 33.1214 66.0301 33.1214 64.158H31.1214ZM31.9014 68.942L30.0715 69.7493C30.7929 71.3844 32.007 72.5985 33.6421 73.3198L34.4494 71.49L35.2567 69.6602C34.5344 69.3415 34.0498 68.8569 33.7312 68.1347L31.9014 68.942ZM34.4494 71.49L33.6421 73.3198C35.1775 73.9972 37.0841 74.27 39.2334 74.27V72.27V70.27C37.3613 70.27 36.0786 70.0228 35.2567 69.6602L34.4494 71.49ZM39.2334 72.27V74.27H45.4734V72.27V70.27H39.2334V72.27ZM45.4734 72.27V74.27C48.0111 74.27 50.3009 73.8598 51.8941 72.6323L50.6734 71.048L49.4527 69.4637C48.9312 69.8655 47.7543 70.27 45.4734 70.27V72.27ZM50.6734 71.048L51.9102 72.6197C53.6291 71.2671 54.3036 69.0736 54.4382 66.6887L52.4414 66.576L50.4446 66.4633C50.3365 68.3771 49.8323 69.1649 49.4366 69.4763L50.6734 71.048ZM52.4414 66.576L54.4325 66.7638C54.4485 66.5941 54.4721 66.7702 54.2517 66.9827C54.145 67.0854 54.0303 67.1462 53.9416 67.1766C53.861 67.2041 53.8279 67.198 53.8714 67.198V65.198V63.198C53.0859 63.198 52.1914 63.4131 51.4761 64.1023C50.7789 64.7741 50.5209 65.6392 50.4502 66.3882L52.4414 66.576ZM53.8714 65.198V67.198C53.9091 67.198 53.8534 67.2039 53.7449 67.1622C53.6244 67.1158 53.4875 67.0288 53.374 66.8979L54.8854 65.588L56.3968 64.2781C55.682 63.4534 54.7108 63.198 53.8714 63.198V65.198ZM54.8854 65.588L53.4712 67.0022C53.3355 66.8666 53.2502 66.7046 53.2105 66.5603C53.1749 66.4311 53.1886 66.3639 53.1846 66.3987L55.1714 66.628L57.1582 66.8572C57.2559 66.0104 57.1043 64.9785 56.2996 64.1738L54.8854 65.588ZM55.1714 66.628L53.1742 66.5216C53.0346 69.1422 52.2895 70.6553 51.2972 71.5043L52.5974 73.024L53.8976 74.5437C56.0252 72.7234 56.9961 69.9724 57.1685 66.7344L55.1714 66.628ZM52.5974 73.024L51.307 71.4959C50.2624 72.3781 48.4423 73 45.4734 73V75V77C48.8831 77 51.8123 76.3046 53.8877 74.5521L52.5974 73.024ZM45.4734 75V73H39.2334V75V77H45.4734V75ZM87.3874 41.85L85.9218 43.2109L85.9722 43.2652L86.0265 43.3156L87.3874 41.85ZM69.0054 44.216V42.216H67.0054V44.216H69.0054ZM69.0054 56.67H67.0054V58.67H69.0054V56.67ZM69.0054 59.4V57.4H67.0054V59.4H69.0054ZM67.6534 75V73C67.5024 73 67.7564 72.9636 68.0341 73.2413C68.3118 73.519 68.2754 73.773 68.2754 73.622H66.2754H64.2754C64.2754 74.3896 64.4687 75.3327 65.2057 76.0697C65.9427 76.8067 66.8858 77 67.6534 77V75ZM66.2754 73.622H68.2754V42.864H66.2754H64.2754V73.622H66.2754ZM66.2754 42.864H68.2754C68.2754 42.713 68.3118 42.967 68.0341 43.2447C67.7564 43.5224 67.5024 43.486 67.6534 43.486V41.486V39.486C66.8858 39.486 65.9427 39.6793 65.2057 40.4163C64.4687 41.1533 64.2754 42.0964 64.2754 42.864H66.2754ZM67.6534 41.486V43.486H86.3994V41.486V39.486H67.6534V41.486ZM86.3994 41.486V43.486C86.4335 43.486 86.3818 43.4912 86.28 43.4537C86.1678 43.4123 86.0359 43.3337 85.9218 43.2109L87.3874 41.85L88.853 40.4891C88.1417 39.7231 87.2083 39.486 86.3994 39.486V41.486ZM87.3874 41.85L86.0265 43.3156C85.8939 43.1924 85.8161 43.0544 85.778 42.9482C85.7439 42.8531 85.7514 42.8127 85.7514 42.864H87.7514H89.7514C89.7514 42.0655 89.5295 41.1098 88.7483 40.3844L87.3874 41.85ZM87.7514 42.864H85.7514C85.7514 43.0064 85.7172 42.7458 85.9992 42.4638C86.2812 42.1818 86.5418 42.216 86.3994 42.216V44.216V46.216C87.1584 46.216 88.0949 46.0249 88.8276 45.2922C89.5603 44.5595 89.7514 43.623 89.7514 42.864H87.7514ZM86.3994 44.216V42.216H69.0054V44.216V46.216H86.3994V44.216ZM69.0054 44.216H67.0054V56.67H69.0054H71.0054V44.216H69.0054ZM69.0054 56.67V58.67H80.8614V56.67V54.67H69.0054V56.67ZM80.8614 56.67V58.67C81.0219 58.67 80.7731 58.7093 80.4942 58.4356C80.2083 58.1551 80.2394 57.8894 80.2394 58.022H82.2394H84.2394C84.2394 57.2533 84.0409 56.3116 83.2956 55.5804C82.5574 54.8561 81.6196 54.67 80.8614 54.67V56.67ZM82.2394 58.022H80.2394C80.2394 58.173 80.203 57.919 80.4807 57.6413C80.7584 57.3636 81.0124 57.4 80.8614 57.4V59.4V61.4C81.629 61.4 82.5721 61.2067 83.3091 60.4697C84.0461 59.7327 84.2394 58.7896 84.2394 58.022H82.2394ZM80.8614 59.4V57.4H69.0054V59.4V61.4H80.8614V59.4ZM69.0054 59.4H67.0054V73.622H69.0054H71.0054V59.4H69.0054ZM69.0054 73.622H67.0054C67.0054 73.7825 66.9661 73.5337 67.2398 73.2548C67.5203 72.9689 67.786 73 67.6534 73V75V77C68.4221 77 69.3638 76.8015 70.095 76.0562C70.8193 75.3179 71.0054 74.3802 71.0054 73.622H69.0054Z" fill="#fff" mask="url(#path-22-outside-1_271_287)"/>
</svg>
