<svg width="113" height="113" viewBox="0 0 113 113" fill="none" xmlns="http://www.w3.org/2000/svg">
<rect x="10.3181" y="10.3184" width="91.6364" height="91.6364" rx="9.5" fill="#102024" stroke="#fff" stroke-width="3"/>
<line x1="102.5" y1="86.5" x2="111.318" y2="86.5" stroke="#fff" stroke-width="3" stroke-linecap="round"/>
<line x1="102.5" y1="78.5" x2="111.318" y2="78.5" stroke="#fff" stroke-width="3" stroke-linecap="round"/>
<line x1="102.5" y1="70.5" x2="111.318" y2="70.5" stroke="#fff" stroke-width="3" stroke-linecap="round"/>
<line x1="102.5" y1="62.5" x2="111.318" y2="62.5" stroke="#fff" stroke-width="3" stroke-linecap="round"/>
<line x1="102.5" y1="54.5" x2="111.318" y2="54.5" stroke="#fff" stroke-width="3" stroke-linecap="round"/>
<line x1="1.5" y1="57.5" x2="10.3182" y2="57.5" stroke="#fff" stroke-width="3" stroke-linecap="round"/>
<line x1="1.5" y1="49.5" x2="10.3182" y2="49.5" stroke="#fff" stroke-width="3" stroke-linecap="round"/>
<line x1="1.5" y1="41.5" x2="10.3182" y2="41.5" stroke="#fff" stroke-width="3" stroke-linecap="round"/>
<line x1="1.5" y1="33.5" x2="10.3182" y2="33.5" stroke="#fff" stroke-width="3" stroke-linecap="round"/>
<line x1="1.5" y1="25.5" x2="10.3182" y2="25.5" stroke="#fff" stroke-width="3" stroke-linecap="round"/>
<line x1="86.5" y1="10.3184" x2="86.5" y2="1.50018" stroke="#fff" stroke-width="3" stroke-linecap="round"/>
<line x1="78.5" y1="10.3184" x2="78.5" y2="1.50018" stroke="#fff" stroke-width="3" stroke-linecap="round"/>
<line x1="70.5" y1="10.3184" x2="70.5" y2="1.50018" stroke="#fff" stroke-width="3" stroke-linecap="round"/>
<line x1="62.5" y1="10.3184" x2="62.5" y2="1.50018" stroke="#fff" stroke-width="3" stroke-linecap="round"/>
<line x1="54.5" y1="10.3184" x2="54.5" y2="1.50018" stroke="#fff" stroke-width="3" stroke-linecap="round"/>
<line x1="57.5" y1="111.318" x2="57.5" y2="102.5" stroke="#fff" stroke-width="3" stroke-linecap="round"/>
<line x1="49.5" y1="111.318" x2="49.5" y2="102.5" stroke="#fff" stroke-width="3" stroke-linecap="round"/>
<line x1="41.5" y1="111.318" x2="41.5" y2="102.5" stroke="#fff" stroke-width="3" stroke-linecap="round"/>
<line x1="33.5" y1="111.318" x2="33.5" y2="102.5" stroke="#fff" stroke-width="3" stroke-linecap="round"/>
<line x1="25.5" y1="111.318" x2="25.5" y2="102.5" stroke="#fff" stroke-width="3" stroke-linecap="round"/>
<mask id="path-22-outside-1_270_257" maskUnits="userSpaceOnUse" x="26" y="39" width="64" height="38" fill="black">
<rect fill="white" x="26" y="39" width="64" height="38"/>
<path d="M39.2333 75C35.4719 75 32.7246 74.1333 30.9913 72.4C29.2579 70.6667 28.3913 67.9193 28.3913 64.158V52.328C28.3913 48.532 29.2493 45.776 30.9653 44.06C32.6986 42.344 35.4373 41.486 39.1813 41.486H45.4733C48.6626 41.486 51.0373 42.1533 52.5973 43.488C54.1573 44.8053 55.0153 46.9287 55.1713 49.858C55.2233 50.326 55.1279 50.6813 54.8853 50.924C54.6599 51.1667 54.3219 51.288 53.8713 51.288C53.0046 51.288 52.5279 50.8287 52.4413 49.91C52.3199 47.7607 51.7306 46.2787 50.6733 45.464C49.6159 44.632 47.8826 44.216 45.4733 44.216H39.1813C37.1879 44.216 35.6019 44.476 34.4233 44.996C33.2446 45.4987 32.3953 46.348 31.8753 47.544C31.3726 48.7227 31.1213 50.3173 31.1213 52.328V64.158C31.1213 66.1687 31.3813 67.7633 31.9013 68.942C32.4213 70.1207 33.2706 70.97 34.4493 71.49C35.6279 72.01 37.2226 72.27 39.2333 72.27H45.4733C47.8826 72.27 49.6159 71.8627 50.6733 71.048C51.7306 70.216 52.3199 68.7253 52.4413 66.576C52.5279 65.6573 53.0046 65.198 53.8713 65.198C54.3219 65.198 54.6599 65.328 54.8853 65.588C55.1279 65.8307 55.2233 66.1773 55.1713 66.628C55.0153 69.5573 54.1573 71.6893 52.5973 73.024C51.0373 74.3413 48.6626 75 45.4733 75H39.2333ZM67.6533 75C66.7346 75 66.2753 74.5407 66.2753 73.622V42.864C66.2753 41.9453 66.7346 41.486 67.6533 41.486H86.3993C86.8326 41.486 87.1619 41.6073 87.3873 41.85C87.6299 42.0753 87.7513 42.4133 87.7513 42.864C87.7513 43.7653 87.3006 44.216 86.3993 44.216H69.0053V56.67H80.8613C81.7799 56.67 82.2393 57.1207 82.2393 58.022C82.2393 58.9407 81.7799 59.4 80.8613 59.4H69.0053V73.622C69.0053 74.5407 68.5546 75 67.6533 75Z"/>
</mask>
<path d="M39.2333 75C35.4719 75 32.7246 74.1333 30.9913 72.4C29.2579 70.6667 28.3913 67.9193 28.3913 64.158V52.328C28.3913 48.532 29.2493 45.776 30.9653 44.06C32.6986 42.344 35.4373 41.486 39.1813 41.486H45.4733C48.6626 41.486 51.0373 42.1533 52.5973 43.488C54.1573 44.8053 55.0153 46.9287 55.1713 49.858C55.2233 50.326 55.1279 50.6813 54.8853 50.924C54.6599 51.1667 54.3219 51.288 53.8713 51.288C53.0046 51.288 52.5279 50.8287 52.4413 49.91C52.3199 47.7607 51.7306 46.2787 50.6733 45.464C49.6159 44.632 47.8826 44.216 45.4733 44.216H39.1813C37.1879 44.216 35.6019 44.476 34.4233 44.996C33.2446 45.4987 32.3953 46.348 31.8753 47.544C31.3726 48.7227 31.1213 50.3173 31.1213 52.328V64.158C31.1213 66.1687 31.3813 67.7633 31.9013 68.942C32.4213 70.1207 33.2706 70.97 34.4493 71.49C35.6279 72.01 37.2226 72.27 39.2333 72.27H45.4733C47.8826 72.27 49.6159 71.8627 50.6733 71.048C51.7306 70.216 52.3199 68.7253 52.4413 66.576C52.5279 65.6573 53.0046 65.198 53.8713 65.198C54.3219 65.198 54.6599 65.328 54.8853 65.588C55.1279 65.8307 55.2233 66.1773 55.1713 66.628C55.0153 69.5573 54.1573 71.6893 52.5973 73.024C51.0373 74.3413 48.6626 75 45.4733 75H39.2333ZM67.6533 75C66.7346 75 66.2753 74.5407 66.2753 73.622V42.864C66.2753 41.9453 66.7346 41.486 67.6533 41.486H86.3993C86.8326 41.486 87.1619 41.6073 87.3873 41.85C87.6299 42.0753 87.7513 42.4133 87.7513 42.864C87.7513 43.7653 87.3006 44.216 86.3993 44.216H69.0053V56.67H80.8613C81.7799 56.67 82.2393 57.1207 82.2393 58.022C82.2393 58.9407 81.7799 59.4 80.8613 59.4H69.0053V73.622C69.0053 74.5407 68.5546 75 67.6533 75Z" fill="#fff"/>
<path d="M30.9913 72.4L32.4055 70.9858L32.4055 70.9858L30.9913 72.4ZM30.9653 44.06L29.5581 42.6387L29.551 42.6458L30.9653 44.06ZM52.5973 43.488L51.297 45.0077L51.3069 45.0161L52.5973 43.488ZM55.1713 49.858L53.1741 49.9644L53.1771 50.0217L53.1835 50.0789L55.1713 49.858ZM54.8853 50.924L53.471 49.5098L53.4449 49.536L53.4197 49.5631L54.8853 50.924ZM52.4413 49.91L50.4444 50.0227L50.4466 50.0603L50.4501 50.0978L52.4413 49.91ZM50.6733 45.464L49.4365 47.0357L49.4445 47.0421L49.4526 47.0483L50.6733 45.464ZM34.4233 44.996L35.2078 46.8357L35.2192 46.8308L35.2305 46.8258L34.4233 44.996ZM31.8753 47.544L30.0411 46.7465L30.0356 46.7594L31.8753 47.544ZM31.9013 68.942L30.0714 69.7493L30.0714 69.7493L31.9013 68.942ZM34.4493 71.49L33.642 73.3198L33.642 73.3198L34.4493 71.49ZM50.6733 71.048L51.8939 72.6323L51.902 72.6261L51.91 72.6197L50.6733 71.048ZM52.4413 66.576L50.4501 66.3882L50.4466 66.4257L50.4444 66.4633L52.4413 66.576ZM54.8853 65.588L53.3739 66.8979L53.4206 66.9518L53.471 67.0022L54.8853 65.588ZM55.1713 66.628L53.1844 66.3987L53.1774 66.46L53.1741 66.5216L55.1713 66.628ZM52.5973 73.024L53.8876 74.5521L53.8974 74.5437L52.5973 73.024ZM39.2333 75V73C35.7248 73 33.6048 72.1851 32.4055 70.9858L30.9913 72.4L29.577 73.8142C31.8443 76.0815 35.2191 77 39.2333 77V75ZM30.9913 72.4L32.4055 70.9858C31.2061 69.7864 30.3913 67.6665 30.3913 64.158H28.3913H26.3913C26.3913 68.1722 27.3097 71.5469 29.577 73.8142L30.9913 72.4ZM28.3913 64.158H30.3913V52.328H28.3913H26.3913V64.158H28.3913ZM28.3913 52.328H30.3913C30.3913 48.7717 31.2034 46.6502 32.3795 45.4742L30.9653 44.06L29.551 42.6458C27.2951 44.9018 26.3913 48.2923 26.3913 52.328H28.3913ZM30.9653 44.06L32.3723 45.4813C33.5727 44.293 35.6886 43.486 39.1813 43.486V41.486V39.486C35.1859 39.486 31.8245 40.395 29.5582 42.6387L30.9653 44.06ZM39.1813 41.486V43.486H45.4733V41.486V39.486H39.1813V41.486ZM45.4733 41.486V43.486C48.4372 43.486 50.2531 44.1145 51.2971 45.0077L52.5973 43.488L53.8974 41.9683C51.8214 40.1921 48.8879 39.486 45.4733 39.486V41.486ZM52.5973 43.488L51.3069 45.0161C52.289 45.8454 53.0344 47.3419 53.1741 49.9644L55.1713 49.858L57.1684 49.7516C56.9961 46.5154 56.0255 43.7652 53.8876 41.9599L52.5973 43.488ZM55.1713 49.858L53.1835 50.0789C53.1893 50.1314 53.1749 50.0772 53.2071 49.9572C53.2435 49.8213 53.3264 49.6544 53.471 49.5098L54.8853 50.924L56.2995 52.3382C57.1167 51.521 57.2516 50.4706 57.159 49.6371L55.1713 49.858ZM54.8853 50.924L53.4197 49.5631C53.5428 49.4305 53.6808 49.3527 53.787 49.3146C53.8821 49.2805 53.9225 49.288 53.8713 49.288V51.288V53.288C54.6698 53.288 55.6255 53.0661 56.3508 52.2849L54.8853 50.924ZM53.8713 51.288V49.288C53.8278 49.288 53.8609 49.2819 53.9415 49.3094C54.0302 49.3398 54.1449 49.4006 54.2515 49.5033C54.472 49.7158 54.4484 49.8919 54.4324 49.7222L52.4413 49.91L50.4501 50.0978C50.5207 50.8468 50.7788 51.7119 51.476 52.3837C52.1912 53.0729 53.0858 53.288 53.8713 53.288V51.288ZM52.4413 49.91L54.4381 49.7973C54.3037 47.4168 53.6302 45.2175 51.8939 43.8797L50.6733 45.464L49.4526 47.0483C49.831 47.3398 50.3361 48.1046 50.4444 50.0227L52.4413 49.91ZM50.6733 45.464L51.91 43.8923C50.3142 42.6365 48.0167 42.216 45.4733 42.216V44.216V46.216C47.7485 46.216 48.9176 46.6275 49.4365 47.0357L50.6733 45.464ZM45.4733 44.216V42.216H39.1813V44.216V46.216H45.4733V44.216ZM39.1813 44.216V42.216C37.0465 42.216 35.1497 42.4895 33.616 43.1662L34.4233 44.996L35.2305 46.8258C36.0542 46.4625 37.3294 46.216 39.1813 46.216V44.216ZM34.4233 44.996L33.6387 43.1563C31.9806 43.8634 30.7609 45.091 30.0411 46.7465L31.8753 47.544L33.7094 48.3415C34.0296 47.605 34.5086 47.1339 35.2078 46.8357L34.4233 44.996ZM31.8753 47.544L30.0356 46.7594C29.3842 48.2868 29.1213 50.1844 29.1213 52.328H31.1213H33.1213C33.1213 50.4503 33.361 49.1585 33.7149 48.3286L31.8753 47.544ZM31.1213 52.328H29.1213V64.158H31.1213H33.1213V52.328H31.1213ZM31.1213 64.158H29.1213C29.1213 66.3073 29.394 68.2139 30.0714 69.7493L31.9013 68.942L33.7311 68.1347C33.3685 67.3128 33.1213 66.0301 33.1213 64.158H31.1213ZM31.9013 68.942L30.0714 69.7493C30.7928 71.3844 32.0068 72.5985 33.642 73.3198L34.4493 71.49L35.2565 69.6602C34.5343 69.3415 34.0497 68.8569 33.7311 68.1347L31.9013 68.942ZM34.4493 71.49L33.642 73.3198C35.1774 73.9972 37.084 74.27 39.2333 74.27V72.27V70.27C37.3612 70.27 36.0785 70.0228 35.2565 69.6602L34.4493 71.49ZM39.2333 72.27V74.27H45.4733V72.27V70.27H39.2333V72.27ZM45.4733 72.27V74.27C48.0109 74.27 50.3008 73.8598 51.8939 72.6323L50.6733 71.048L49.4526 69.4637C48.9311 69.8655 47.7542 70.27 45.4733 70.27V72.27ZM50.6733 71.048L51.91 72.6197C53.629 71.2671 54.3034 69.0736 54.4381 66.6887L52.4413 66.576L50.4444 66.4633C50.3364 68.3771 49.8322 69.1649 49.4365 69.4763L50.6733 71.048ZM52.4413 66.576L54.4324 66.7638C54.4484 66.5941 54.472 66.7702 54.2515 66.9827C54.1449 67.0854 54.0302 67.1462 53.9415 67.1766C53.8609 67.2041 53.8278 67.198 53.8713 67.198V65.198V63.198C53.0858 63.198 52.1912 63.4131 51.476 64.1023C50.7788 64.7741 50.5207 65.6392 50.4501 66.3882L52.4413 66.576ZM53.8713 65.198V67.198C53.9089 67.198 53.8533 67.2039 53.7448 67.1622C53.6243 67.1158 53.4874 67.0288 53.3739 66.8979L54.8853 65.588L56.3966 64.2781C55.6819 63.4534 54.7107 63.198 53.8713 63.198V65.198ZM54.8853 65.588L53.471 67.0022C53.3354 66.8666 53.25 66.7046 53.2103 66.5603C53.1748 66.4311 53.1885 66.3639 53.1844 66.3987L55.1713 66.628L57.1581 66.8572C57.2558 66.0104 57.1041 64.9785 56.2995 64.1738L54.8853 65.588ZM55.1713 66.628L53.1741 66.5216C53.0345 69.1422 52.2894 70.6553 51.2971 71.5043L52.5973 73.024L53.8974 74.5437C56.0251 72.7234 56.996 69.9724 57.1684 66.7344L55.1713 66.628ZM52.5973 73.024L51.3069 71.4959C50.2623 72.3781 48.4422 73 45.4733 73V75V77C48.883 77 51.8122 76.3046 53.8876 74.5521L52.5973 73.024ZM45.4733 75V73H39.2333V75V77H45.4733V75ZM87.3873 41.85L85.9217 43.2109L85.9721 43.2652L86.0264 43.3156L87.3873 41.85ZM69.0053 44.216V42.216H67.0053V44.216H69.0053ZM69.0053 56.67H67.0053V58.67H69.0053V56.67ZM69.0053 59.4V57.4H67.0053V59.4H69.0053ZM67.6533 75V73C67.5022 73 67.7563 72.9636 68.034 73.2413C68.3117 73.519 68.2753 73.773 68.2753 73.622H66.2753H64.2753C64.2753 74.3896 64.4685 75.3327 65.2056 76.0697C65.9426 76.8067 66.8857 77 67.6533 77V75ZM66.2753 73.622H68.2753V42.864H66.2753H64.2753V73.622H66.2753ZM66.2753 42.864H68.2753C68.2753 42.713 68.3117 42.967 68.034 43.2447C67.7563 43.5224 67.5022 43.486 67.6533 43.486V41.486V39.486C66.8857 39.486 65.9426 39.6793 65.2056 40.4163C64.4685 41.1533 64.2753 42.0964 64.2753 42.864H66.2753ZM67.6533 41.486V43.486H86.3993V41.486V39.486H67.6533V41.486ZM86.3993 41.486V43.486C86.4334 43.486 86.3817 43.4912 86.2799 43.4537C86.1677 43.4123 86.0357 43.3337 85.9217 43.2109L87.3873 41.85L88.8529 40.4891C88.1416 39.7231 87.2082 39.486 86.3993 39.486V41.486ZM87.3873 41.85L86.0264 43.3156C85.8937 43.1924 85.816 43.0544 85.7779 42.9482C85.7438 42.8531 85.7513 42.8127 85.7513 42.864H87.7513H89.7513C89.7513 42.0655 89.5294 41.1098 88.7482 40.3844L87.3873 41.85ZM87.7513 42.864H85.7513C85.7513 43.0064 85.717 42.7458 85.9991 42.4638C86.2811 42.1818 86.5417 42.216 86.3993 42.216V44.216V46.216C87.1582 46.216 88.0948 46.0249 88.8275 45.2922C89.5602 44.5595 89.7513 43.623 89.7513 42.864H87.7513ZM86.3993 44.216V42.216H69.0053V44.216V46.216H86.3993V44.216ZM69.0053 44.216H67.0053V56.67H69.0053H71.0053V44.216H69.0053ZM69.0053 56.67V58.67H80.8613V56.67V54.67H69.0053V56.67ZM80.8613 56.67V58.67C81.0218 58.67 80.773 58.7093 80.4941 58.4356C80.2082 58.1551 80.2393 57.8894 80.2393 58.022H82.2393H84.2393C84.2393 57.2533 84.0407 56.3116 83.2955 55.5804C82.5572 54.8561 81.6194 54.67 80.8613 54.67V56.67ZM82.2393 58.022H80.2393C80.2393 58.173 80.2029 57.919 80.4806 57.6413C80.7583 57.3636 81.0123 57.4 80.8613 57.4V59.4V61.4C81.6289 61.4 82.572 61.2067 83.309 60.4697C84.046 59.7327 84.2393 58.7896 84.2393 58.022H82.2393ZM80.8613 59.4V57.4H69.0053V59.4V61.4H80.8613V59.4ZM69.0053 59.4H67.0053V73.622H69.0053H71.0053V59.4H69.0053ZM69.0053 73.622H67.0053C67.0053 73.7825 66.966 73.5337 67.2397 73.2548C67.5202 72.9689 67.7859 73 67.6533 73V75V77C68.422 77 69.3637 76.8015 70.0949 76.0562C70.8192 75.3179 71.0053 74.3802 71.0053 73.622H69.0053Z" fill="#fff" mask="url(#path-22-outside-1_270_257)"/>
</svg>
